# xmcd
#
# Track frame offsets:
#	225
#	13913
#	26092
#	39582
#	54770
#	76931
#	90294
#	100786
#	114233
#	126979
#	143295
#	157965
#	172764
#	186710
#	201086
#	214551
#	230679
#	244267
#	257015
#	270617
#	289743
#
# Disc length: 4004 seconds
#
# Revision: 1
# Processed by: cddbd v1.5PL3 Copyright (c) Steve Scherf et al.
# Submitted via: EasyCDDAExtractor 7.0.0.1
#
DISCID=160fa115
DTITLE=Kapelle Alpsteebuebe - Mys Appezöll
DYEAR=2003
DGENRE=Country
TTITLE0=Jenny und Giancarlo
TTITLE1=Im Berghüsli
TTITLE2=s' Loos-Müetterli
TTITLE3=Appezöller Chäfescht
TTITLE4=150 Johr Alte Säntis
TTITLE5=Dank an Chaschbi
TTITLE6=Uf de Chrüzfahrt
TTITLE7=Mys Appezöll
TTITLE8=Bis Stäges uf Bsuech
TTITLE9=Em Zwirnili Mösli' Bueb
TTITLE10=Zwillings-Czardas
TTITLE11=Chom doch go luege
TTITLE12=Mini Halle 7
TTITLE13=Im Möhleli
TTITLE14=Im Silberturm
TTITLE15=Dankeschön an Franz Müller
TTITLE16=Bim Vreneli im Frohheim
TTITLE17=Hondwil - Appezöll
TTITLE18=Endlich onder am Dach
TTITLE19=Bim Nils i der Spindle
TTITLE20=Salvis Moni
EXTD=
EXTT0=
EXTT1=
EXTT2=
EXTT3=
EXTT4=
EXTT5=
EXTT6=
EXTT7=
EXTT8=
EXTT9=
EXTT10=
EXTT11=
EXTT12=
EXTT13=
EXTT14=
EXTT15=
EXTT16=
EXTT17=
EXTT18=
EXTT19=
EXTT20=
PLAYORDER=
